<?xml version="1.0" encoding="UTF-8"?>
<svg xmlns="http://www.w3.org/2000/svg" width="176" height="25" viewBox="0 0 176 25" fill="none">
  <path d="M143.898 8.68805C144.089 8.48179 144.359 8.36393 144.647 8.36393H174.977C175.542 8.36393 176 7.90727 176 7.34374V6.0879C176 5.82639 175.904 5.5833 175.727 5.39183L170.986 0.327803C170.79 0.121545 170.52 0.00368317 170.232 0.00368317H140.999C140.718 0.00368317 140.441 0.121545 140.249 0.327803L135.504 5.39183C135.327 5.57962 135.231 5.83007 135.231 6.0879V13.3175C135.231 13.5753 135.327 13.8221 135.504 14.0136L140.249 19.0776C140.441 19.2838 140.714 19.4017 140.999 19.4017H170.232C170.517 19.4017 170.79 19.2838 170.986 19.0776L175.727 14.0136C175.904 13.8257 176 13.5753 176 13.3175V12.0616C176 11.4981 175.542 11.0414 174.977 11.0414H144.647C144.363 11.0414 144.089 10.9236 143.898 10.7173C143.72 10.5295 143.624 10.2791 143.624 10.0212V9.38411C143.624 9.12629 143.72 8.87957 143.898 8.68805Z" fill="#16E3C1"></path>
  <path d="M43.3465 11.174H43.3429L40.7655 11.1777V6.22049C40.7655 5.96267 40.6695 5.71589 40.4922 5.52437L35.7473 0.452973C35.5516 0.246773 35.2858 0.128912 34.9978 0.128912H5.76772C5.48707 0.128912 5.21014 0.246773 5.01816 0.452973L0.273252 5.517C0.0960201 5.70484 0 5.9553 0 6.21312V13.4501C0 13.7116 0.0960201 13.9547 0.273252 14.1461L5.01816 19.2102C5.21382 19.4164 5.47972 19.5343 5.76772 19.5343H50.3031C50.5838 19.5306 50.8611 19.4127 51.053 19.2028C51.053 19.2028 43.9152 11.1667 43.3502 11.1667L43.3465 11.174ZM32.3872 10.1538H32.3834C32.3834 10.7173 31.9256 11.174 31.3606 11.174H9.40855C9.1279 11.174 8.85097 11.0562 8.65899 10.8499C8.48176 10.6621 8.38574 10.4117 8.38574 10.1538V9.52039C8.38574 9.26257 8.48176 9.01579 8.66266 8.82433C8.85838 8.61807 9.12422 8.50021 9.41222 8.50021H31.3421C31.6154 8.50021 31.8776 8.60702 32.0659 8.79855L32.088 8.82065C32.2837 9.0158 32.3872 9.27362 32.3872 9.54249V10.1538Z" fill="#16E3C1"></path>
  <path d="M89.993 19.7884L88.2645 16.8273C88.1946 16.7094 88.0619 16.6321 87.9215 16.6321H81.8695C81.7291 16.6321 81.5958 16.7058 81.5259 16.8273L79.798 19.7884C79.7607 19.8584 79.7459 19.9394 79.7571 20.013C79.7571 20.013 79.7648 20.0425 79.7648 20.0572C79.7755 20.1309 79.8051 20.2082 79.8643 20.2635L84.6168 24.8893C84.6944 24.9629 84.7975 25.0035 84.897 24.9998C84.9971 24.9998 85.1001 24.9629 85.1813 24.8893L89.9337 20.2635C89.9894 20.2046 90.0184 20.1346 90.0297 20.0609C90.0297 20.0425 90.0374 20.0314 90.0374 20.013C90.0374 19.9394 90.0374 19.8584 89.993 19.7884Z" fill="#16E3C1"></path>
  <path d="M86.2635 5.08245L81.8991 0.419884C81.703 0.213625 81.437 0.0957624 81.1492 0.0957624H66.5862V9.80394C66.5862 10.0765 66.479 10.338 66.2871 10.5258L66.2646 10.5479C66.0691 10.7431 65.8108 10.8462 65.5407 10.8462H64.9282C64.3631 10.8425 63.9052 10.3859 63.9052 9.82235V0.0957624H49.3417C49.0615 0.0957624 48.7843 0.213625 48.5924 0.419884L44.2277 5.08245C43.8622 5.47286 43.8622 6.08421 44.2277 6.47825L56.1105 19.1807C56.306 19.3869 56.5719 19.5048 56.8598 19.5048H73.6352C73.9154 19.5048 74.1926 19.3869 74.3845 19.1807L86.2671 6.47825C86.6326 6.0879 86.6326 5.47655 86.2671 5.08245H86.2635Z" fill="#16E3C1"></path>
  <path d="M121.136 0.32412C120.94 0.117862 120.674 0 120.386 0H103.611C103.33 0 103.053 0.117862 102.861 0.32412L90.9786 13.0266C90.6132 13.4169 90.6132 14.0283 90.9786 14.4224L95.3431 19.085C95.5391 19.2912 95.8051 19.409 96.093 19.409H110.657V9.70087C110.657 9.42831 110.763 9.16681 110.955 8.97896L110.978 8.95686C111.173 8.76171 111.432 8.65858 111.701 8.65858H112.314C112.879 8.66227 113.337 9.11892 113.337 9.68245V19.409H127.9C128.181 19.409 128.458 19.2912 128.65 19.085L133.014 14.4224C133.38 14.0319 133.38 13.4206 133.014 13.0266L121.132 0.32412H121.136Z" fill="#16E3C1"></path>
</svg>
